<mxfile host="65bd71144e">
    <diagram id="BzMbUA78UZuc5r768p5K" name="第 1 页">
        <mxGraphModel dx="2895" dy="755" grid="1" gridSize="10" guides="1" tooltips="1" connect="1" arrows="1" fold="1" page="1" pageScale="1" pageWidth="1169" pageHeight="1654" math="0" shadow="0">
            <root>
                <mxCell id="0"/>
                <mxCell id="1" parent="0"/>
                <mxCell id="2" value="" style="rounded=1;whiteSpace=wrap;html=1;strokeWidth=2;arcSize=6;dashed=1;" vertex="1" parent="1">
                    <mxGeometry x="-260" y="290" width="470" height="330" as="geometry"/>
                </mxCell>
                <mxCell id="3" value="" style="shape=table;startSize=0;container=1;collapsible=0;childLayout=tableLayout;fontSize=16;strokeWidth=2;" vertex="1" parent="1">
                    <mxGeometry x="-95" y="365" width="120" height="60" as="geometry"/>
                </mxCell>
                <mxCell id="4" value="" style="shape=tableRow;horizontal=0;startSize=0;swimlaneHead=0;swimlaneBody=0;strokeColor=inherit;top=0;left=0;bottom=0;right=0;collapsible=0;dropTarget=0;fillColor=none;points=[[0,0.5],[1,0.5]];portConstraint=eastwest;fontSize=16;" vertex="1" parent="3">
                    <mxGeometry width="120" height="30" as="geometry"/>
                </mxCell>
                <mxCell id="5" value="" style="shape=partialRectangle;html=1;whiteSpace=wrap;connectable=0;strokeColor=inherit;overflow=hidden;fillColor=none;top=0;left=0;bottom=0;right=0;pointerEvents=1;fontSize=16;" vertex="1" parent="4">
                    <mxGeometry width="30" height="30" as="geometry">
                        <mxRectangle width="30" height="30" as="alternateBounds"/>
                    </mxGeometry>
                </mxCell>
                <mxCell id="6" style="shape=partialRectangle;html=1;whiteSpace=wrap;connectable=0;strokeColor=inherit;overflow=hidden;fillColor=none;top=0;left=0;bottom=0;right=0;pointerEvents=1;fontSize=16;" vertex="1" parent="4">
                    <mxGeometry x="30" width="30" height="30" as="geometry">
                        <mxRectangle width="30" height="30" as="alternateBounds"/>
                    </mxGeometry>
                </mxCell>
                <mxCell id="7" style="shape=partialRectangle;html=1;whiteSpace=wrap;connectable=0;strokeColor=inherit;overflow=hidden;fillColor=#FFB366;top=0;left=0;bottom=0;right=0;pointerEvents=1;fontSize=16;sketch=1;curveFitting=1;jiggle=2;" vertex="1" parent="4">
                    <mxGeometry x="60" width="30" height="30" as="geometry">
                        <mxRectangle width="30" height="30" as="alternateBounds"/>
                    </mxGeometry>
                </mxCell>
                <mxCell id="8" style="shape=partialRectangle;html=1;whiteSpace=wrap;connectable=0;strokeColor=inherit;overflow=hidden;fillColor=none;top=0;left=0;bottom=0;right=0;pointerEvents=1;fontSize=16;" vertex="1" parent="4">
                    <mxGeometry x="90" width="30" height="30" as="geometry">
                        <mxRectangle width="30" height="30" as="alternateBounds"/>
                    </mxGeometry>
                </mxCell>
                <mxCell id="9" value="" style="shape=tableRow;horizontal=0;startSize=0;swimlaneHead=0;swimlaneBody=0;strokeColor=inherit;top=0;left=0;bottom=0;right=0;collapsible=0;dropTarget=0;fillColor=none;points=[[0,0.5],[1,0.5]];portConstraint=eastwest;fontSize=16;" vertex="1" parent="3">
                    <mxGeometry y="30" width="120" height="30" as="geometry"/>
                </mxCell>
                <mxCell id="10" value="" style="shape=partialRectangle;html=1;whiteSpace=wrap;connectable=0;strokeColor=inherit;overflow=hidden;fillColor=none;top=0;left=0;bottom=0;right=0;pointerEvents=1;fontSize=16;" vertex="1" parent="9">
                    <mxGeometry width="30" height="30" as="geometry">
                        <mxRectangle width="30" height="30" as="alternateBounds"/>
                    </mxGeometry>
                </mxCell>
                <mxCell id="11" style="shape=partialRectangle;html=1;whiteSpace=wrap;connectable=0;strokeColor=inherit;overflow=hidden;fillColor=none;top=0;left=0;bottom=0;right=0;pointerEvents=1;fontSize=16;" vertex="1" parent="9">
                    <mxGeometry x="30" width="30" height="30" as="geometry">
                        <mxRectangle width="30" height="30" as="alternateBounds"/>
                    </mxGeometry>
                </mxCell>
                <mxCell id="12" style="shape=partialRectangle;html=1;whiteSpace=wrap;connectable=0;strokeColor=inherit;overflow=hidden;fillColor=#0066CC;top=0;left=0;bottom=0;right=0;pointerEvents=1;fontSize=16;sketch=1;curveFitting=1;jiggle=2;" vertex="1" parent="9">
                    <mxGeometry x="60" width="30" height="30" as="geometry">
                        <mxRectangle width="30" height="30" as="alternateBounds"/>
                    </mxGeometry>
                </mxCell>
                <mxCell id="13" style="shape=partialRectangle;html=1;whiteSpace=wrap;connectable=0;strokeColor=inherit;overflow=hidden;fillColor=none;top=0;left=0;bottom=0;right=0;pointerEvents=1;fontSize=16;" vertex="1" parent="9">
                    <mxGeometry x="90" width="30" height="30" as="geometry">
                        <mxRectangle width="30" height="30" as="alternateBounds"/>
                    </mxGeometry>
                </mxCell>
                <mxCell id="14" value="VehiclePropertyStore" style="text;html=1;align=center;verticalAlign=middle;whiteSpace=wrap;rounded=0;fontStyle=1;fontSize=14;" vertex="1" parent="1">
                    <mxGeometry x="-225" y="285" width="110" height="30" as="geometry"/>
                </mxCell>
                <mxCell id="16" value="" style="curved=1;endArrow=openThin;html=1;entryX=0.243;entryY=-0.033;entryDx=0;entryDy=0;entryPerimeter=0;exitX=1;exitY=0.5;exitDx=0;exitDy=0;endFill=0;strokeWidth=2;" edge="1" parent="1" source="17">
                    <mxGeometry width="50" height="50" relative="1" as="geometry">
                        <mxPoint x="-160" y="255" as="sourcePoint"/>
                        <mxPoint x="-26" y="364" as="targetPoint"/>
                        <Array as="points">
                            <mxPoint x="-70" y="325"/>
                            <mxPoint x="-26" y="345"/>
                        </Array>
                    </mxGeometry>
                </mxCell>
                <mxCell id="17" value="property id" style="text;html=1;align=center;verticalAlign=middle;whiteSpace=wrap;rounded=0;" vertex="1" parent="1">
                    <mxGeometry x="-180" y="315" width="60" height="30" as="geometry"/>
                </mxCell>
                <mxCell id="18" value="" style="shape=table;startSize=0;container=1;collapsible=0;childLayout=tableLayout;fontSize=16;strokeWidth=2;" vertex="1" parent="1">
                    <mxGeometry x="10" y="520" width="120" height="60" as="geometry"/>
                </mxCell>
                <mxCell id="19" value="" style="shape=tableRow;horizontal=0;startSize=0;swimlaneHead=0;swimlaneBody=0;strokeColor=inherit;top=0;left=0;bottom=0;right=0;collapsible=0;dropTarget=0;fillColor=none;points=[[0,0.5],[1,0.5]];portConstraint=eastwest;fontSize=16;" vertex="1" parent="18">
                    <mxGeometry width="120" height="30" as="geometry"/>
                </mxCell>
                <mxCell id="20" value="" style="shape=partialRectangle;html=1;whiteSpace=wrap;connectable=0;strokeColor=inherit;overflow=hidden;fillColor=none;top=0;left=0;bottom=0;right=0;pointerEvents=1;fontSize=16;" vertex="1" parent="19">
                    <mxGeometry width="30" height="30" as="geometry">
                        <mxRectangle width="30" height="30" as="alternateBounds"/>
                    </mxGeometry>
                </mxCell>
                <mxCell id="21" style="shape=partialRectangle;html=1;whiteSpace=wrap;connectable=0;strokeColor=inherit;overflow=hidden;fillColor=#FFE6CC;top=0;left=0;bottom=0;right=0;pointerEvents=1;fontSize=16;sketch=1;curveFitting=1;jiggle=2;" vertex="1" parent="19">
                    <mxGeometry x="30" width="30" height="30" as="geometry">
                        <mxRectangle width="30" height="30" as="alternateBounds"/>
                    </mxGeometry>
                </mxCell>
                <mxCell id="22" style="shape=partialRectangle;html=1;whiteSpace=wrap;connectable=0;strokeColor=inherit;overflow=hidden;fillColor=none;top=0;left=0;bottom=0;right=0;pointerEvents=1;fontSize=16;" vertex="1" parent="19">
                    <mxGeometry x="60" width="30" height="30" as="geometry">
                        <mxRectangle width="30" height="30" as="alternateBounds"/>
                    </mxGeometry>
                </mxCell>
                <mxCell id="23" style="shape=partialRectangle;html=1;whiteSpace=wrap;connectable=0;strokeColor=inherit;overflow=hidden;fillColor=none;top=0;left=0;bottom=0;right=0;pointerEvents=1;fontSize=16;" vertex="1" parent="19">
                    <mxGeometry x="90" width="30" height="30" as="geometry">
                        <mxRectangle width="30" height="30" as="alternateBounds"/>
                    </mxGeometry>
                </mxCell>
                <mxCell id="24" style="shape=tableRow;horizontal=0;startSize=0;swimlaneHead=0;swimlaneBody=0;strokeColor=inherit;top=0;left=0;bottom=0;right=0;collapsible=0;dropTarget=0;fillColor=none;points=[[0,0.5],[1,0.5]];portConstraint=eastwest;fontSize=16;" vertex="1" parent="18">
                    <mxGeometry y="30" width="120" height="30" as="geometry"/>
                </mxCell>
                <mxCell id="25" style="shape=partialRectangle;html=1;whiteSpace=wrap;connectable=0;strokeColor=inherit;overflow=hidden;fillColor=none;top=0;left=0;bottom=0;right=0;pointerEvents=1;fontSize=16;" vertex="1" parent="24">
                    <mxGeometry width="30" height="30" as="geometry">
                        <mxRectangle width="30" height="30" as="alternateBounds"/>
                    </mxGeometry>
                </mxCell>
                <mxCell id="26" style="shape=partialRectangle;html=1;whiteSpace=wrap;connectable=0;strokeColor=inherit;overflow=hidden;fillColor=#6600CC;top=0;left=0;bottom=0;right=0;pointerEvents=1;fontSize=16;sketch=1;curveFitting=1;jiggle=2;" vertex="1" parent="24">
                    <mxGeometry x="30" width="30" height="30" as="geometry">
                        <mxRectangle width="30" height="30" as="alternateBounds"/>
                    </mxGeometry>
                </mxCell>
                <mxCell id="27" style="shape=partialRectangle;html=1;whiteSpace=wrap;connectable=0;strokeColor=inherit;overflow=hidden;fillColor=none;top=0;left=0;bottom=0;right=0;pointerEvents=1;fontSize=16;" vertex="1" parent="24">
                    <mxGeometry x="60" width="30" height="30" as="geometry">
                        <mxRectangle width="30" height="30" as="alternateBounds"/>
                    </mxGeometry>
                </mxCell>
                <mxCell id="28" style="shape=partialRectangle;html=1;whiteSpace=wrap;connectable=0;strokeColor=inherit;overflow=hidden;fillColor=none;top=0;left=0;bottom=0;right=0;pointerEvents=1;fontSize=16;" vertex="1" parent="24">
                    <mxGeometry x="90" width="30" height="30" as="geometry">
                        <mxRectangle width="30" height="30" as="alternateBounds"/>
                    </mxGeometry>
                </mxCell>
                <mxCell id="29" value="property config" style="text;html=1;align=center;verticalAlign=middle;whiteSpace=wrap;rounded=0;fontStyle=0;fontSize=12;" vertex="1" parent="1">
                    <mxGeometry x="-200" y="525" width="60" height="30" as="geometry"/>
                </mxCell>
                <mxCell id="30" value="token function" style="text;html=1;align=center;verticalAlign=middle;whiteSpace=wrap;rounded=0;fontStyle=0;fontSize=12;" vertex="1" parent="1">
                    <mxGeometry x="-95" y="525" width="60" height="30" as="geometry"/>
                </mxCell>
                <mxCell id="31" value="" style="shape=curlyBracket;whiteSpace=wrap;html=1;rounded=1;flipH=1;labelPosition=right;verticalLabelPosition=middle;align=left;verticalAlign=middle;rotation=-90;strokeWidth=2;" vertex="1" parent="1">
                    <mxGeometry x="-50" y="370" width="20" height="260" as="geometry"/>
                </mxCell>
                <mxCell id="32" value="record" style="text;html=1;align=center;verticalAlign=middle;whiteSpace=wrap;rounded=0;" vertex="1" parent="1">
                    <mxGeometry x="-70" y="460" width="60" height="30" as="geometry"/>
                </mxCell>
                <mxCell id="33" value="record id : {&lt;div&gt;&amp;nbsp; area id,&lt;/div&gt;&lt;div&gt;&amp;nbsp; token&lt;/div&gt;&lt;div&gt;}&lt;/div&gt;" style="text;html=1;align=left;verticalAlign=middle;whiteSpace=wrap;rounded=0;" vertex="1" parent="1">
                    <mxGeometry x="80" y="422.5" width="70" height="65" as="geometry"/>
                </mxCell>
                <mxCell id="34" value="" style="curved=1;endArrow=openThin;html=1;entryX=0.367;entryY=-0.033;entryDx=0;entryDy=0;entryPerimeter=0;exitX=0;exitY=0.5;exitDx=0;exitDy=0;endFill=0;strokeWidth=2;" edge="1" parent="1" source="33" target="19">
                    <mxGeometry width="50" height="50" relative="1" as="geometry">
                        <mxPoint x="60" y="675" as="sourcePoint"/>
                        <mxPoint x="154" y="709" as="targetPoint"/>
                        <Array as="points">
                            <mxPoint x="60" y="470"/>
                        </Array>
                    </mxGeometry>
                </mxCell>
                <mxCell id="35" value="property value: SharedPtr" style="text;html=1;align=center;verticalAlign=middle;whiteSpace=wrap;rounded=0;" vertex="1" parent="1">
                    <mxGeometry x="40" y="650" width="90" height="30" as="geometry"/>
                </mxCell>
                <mxCell id="36" value="" style="curved=1;endArrow=openThin;html=1;entryX=0.5;entryY=0;entryDx=0;entryDy=0;exitX=0.358;exitY=0.967;exitDx=0;exitDy=0;endFill=0;strokeWidth=2;exitPerimeter=0;" edge="1" parent="1" source="24" target="35">
                    <mxGeometry width="50" height="50" relative="1" as="geometry">
                        <mxPoint x="90" y="465" as="sourcePoint"/>
                        <mxPoint x="64" y="529" as="targetPoint"/>
                        <Array as="points">
                            <mxPoint x="80" y="620"/>
                        </Array>
                    </mxGeometry>
                </mxCell>
                <mxCell id="37" value="" style="curved=1;endArrow=openThin;html=1;exitX=0.658;exitY=1.033;exitDx=0;exitDy=0;endFill=0;strokeWidth=2;exitPerimeter=0;" edge="1" parent="1" source="9" target="32">
                    <mxGeometry width="50" height="50" relative="1" as="geometry">
                        <mxPoint x="-110" y="340" as="sourcePoint"/>
                        <mxPoint x="-16" y="374" as="targetPoint"/>
                        <Array as="points">
                            <mxPoint x="-16" y="450"/>
                        </Array>
                    </mxGeometry>
                </mxCell>
            </root>
        </mxGraphModel>
    </diagram>
</mxfile>